Coordinates
version=1
nRows=22
nColumns=24
inDegrees=yes

Units are S.I. units (second, meters, Newtons, ...)
Angles are in degrees.

endheader
time	pelvis_tilt	pelvis_list	pelvis_rotation	pelvis_tx	pelvis_ty	pelvis_tz	hip_flexion_r	hip_adduction_r	hip_rotation_r	knee_angle_r	ankle_angle_r	subtalar_angle_r	mtp_angle_r	hip_flexion_l	hip_adduction_l	hip_rotation_l	knee_angle_l	ankle_angle_l	subtalar_angle_l	mtp_angle_l	lumbar_extension	lumbar_bending	lumbar_rotation
      1.10833333	     -1.36309766	     -3.50535616	     -1.29957509	     -0.20128618	      1.00750665	      0.32871803	    -14.08135380	      8.64927551	      2.47385483	     -5.17452491	     15.02435834	     -1.78137871	      2.15304763	     20.44806871	     -2.65985656	     -2.42464942	      8.68949545	      2.13082930	     -5.24624943	     -1.12600722	     -0.08430314	      1.48924511	      7.88378384
      1.11250000	     -1.35057668	     -3.36672394	     -1.38430422	     -0.19573957	      1.00680050	      0.32854113	    -14.20607575	      8.47055167	      2.48520168	     -5.62670798	     15.19191625	     -1.85284250	      2.14039808	     20.47442562	     -2.47146728	     -2.20790441	      8.37440850	      2.20531201	     -5.26420629	     -1.08391485	     -0.10095769	      1.32507156	      7.89934275
      1.11666667	     -1.35188339	     -3.21340673	     -1.48862002	     -0.19015754	      1.00612826	      0.32834717	    -14.24740956	      8.25743865	      2.32309997	     -6.23276427	     15.56390411	     -1.45662467	      2.06134343	     20.51599344	     -2.27263155	     -2.01065595	      7.98970574	      2.24558837	     -5.29941101	     -0.81825268	     -0.08903014	      1.13921964	      8.03182927
      1.12083333	     -1.32192383	     -3.05129530	     -1.56457152	     -0.18455062	      1.00551762	      0.32814457	    -14.36382249	      8.05820107	      2.36482772	     -6.74007595	     15.69670407	     -1.56911011	      2.04986529	     20.54376109	     -2.05705988	     -1.80746162	      7.51453103	      2.28041247	     -5.35413466	     -0.76122581	     -0.11395467	      0.94612294	      8.04160018
      1.12500000	     -1.30167538	     -2.86767570	     -1.64831998	     -0.17890067	      1.00492617	      0.32792435	    -14.41244792	      7.82233789	      2.25504709	     -7.37674456	     15.99413686	     -1.31088692	      1.98044270	     20.58222693	     -1.82033572	     -1.60394216	      6.98829428	      2.21632167	     -5.50849002	     -0.37823203	     -0.11895177	      0.71682113	      8.15545020
      1.12916667	     -1.24747934	     -2.67629301	     -1.71193225	     -0.17322726	      1.00441940	      0.32769532	    -14.52172666	      7.59731754	      2.28861418	     -7.95115847	     16.08020190	     -1.45974527	      1.97180939	     20.60646729	     -1.56983297	     -1.43798046	      6.37463254	      2.18766067	     -5.59366829	     -0.30931886	     -0.16227741	      0.48699693	      8.16216390
      1.13333333	     -1.19202231	     -2.47276636	     -1.77495893	     -0.16751761	      1.00394448	      0.32745767	    -14.61219600	      7.35937858	      2.31153595	     -8.56980975	     16.17906424	     -1.57271555	      1.96579030	     20.63400314	     -1.30631932	     -1.28258583	      5.71646332	      2.10713192	     -5.71964441	     -0.22371801	     -0.19989605	      0.23216542	      8.18621619
      1.13750000	     -1.13771825	     -2.26973783	     -1.83386300	     -0.16178604	      1.00349221	      0.32717930	    -14.63946249	      7.10852201	      2.16606487	     -9.32323365	     16.41852604	     -1.30782054	      1.93809728	     20.64641896	     -1.03895375	     -1.02356901	      5.07092262	      1.80636195	     -6.16836835	      0.40880292	     -0.22024700	     -0.02941853	      8.31376175
      1.14166667	     -1.06794431	     -2.04683436	     -1.87633696	     -0.15600022	      1.00311072	      0.32691358	    -14.72198440	      6.86137389	      2.20847472	     -9.98741253	     16.43594256	     -1.51769679	      1.93598921	     20.67678187	     -0.74877620	     -0.90614668	      4.32060054	      1.68242408	     -6.28632170	      0.51785793	     -0.26843870	     -0.32125707	      8.30575068
      1.14583333	     -0.95530667	     -1.82939553	     -1.90728387	     -0.15019764	      1.00280721	      0.32661359	    -14.83504009	      6.62101150	      2.24865189	    -10.68610686	     16.44385467	     -1.68967465	      2.07568400	     20.63797150	     -0.45861426	     -0.69872534	      3.62344943	      1.21994712	     -6.72388483	      4.82652147	     -0.39207547	     -0.59739834	      8.25601682
      1.15000000	     -0.88956266	     -1.59668019	     -1.94707739	     -0.14435394	      1.00248906	      0.32628795	    -14.86516730	      6.36015217	      2.24993377	    -11.44683736	     16.38898219	     -1.84320264	      2.08024074	     20.68396918	     -0.15442273	     -0.62161848	      2.81470464	      1.04120270	     -6.89099135	      4.83865031	     -0.42534553	     -0.86564057	      8.29296075
      1.15416667	     -0.84935036	     -1.37275738	     -1.98040827	     -0.13848601	      1.00216036	      0.32596079	    -14.83218164	      6.10891474	      2.20270062	    -12.28629893	     16.40003426	     -1.85054359	      2.14134549	     20.72389016	      0.14317384	     -0.37517077	      2.07501885	      0.58298633	     -7.44437562	      4.94170747	     -0.40273947	     -1.16492075	      8.38518281
      1.15833333	     -0.76120959	     -1.12022037	     -1.99814588	     -0.13256862	      1.00194747	      0.32561206	    -14.85798736	      5.83592413	      2.20088409	    -13.10411415	     16.29598914	     -2.01624942	      2.18697540	     20.72615853	      0.47369711	     -0.24025737	      1.29231639	      0.22896326	     -7.74733081	      5.00877226	     -0.46070967	     -1.51078720	      8.37498196
      1.16250000	     -0.68162712	     -0.90052599	     -2.01114124	     -0.12666823	      1.00175739	      0.32521374	    -14.83468977	      5.59254255	      2.14256036	    -13.99819788	     16.17686785	     -2.11786986	      2.32034499	     20.72110501	      0.77765150	      0.02194843	      0.54535915	     -0.28479628	     -8.39415364	      5.16759468	     -0.50072681	     -1.75991695	      8.37674194
      1.16666667	     -0.59167247	     -0.65621482	     -2.01650272	     -0.12071527	      1.00162858	      0.32480370	    -14.81143670	      5.32530159	      2.08742360	    -14.91126932	     15.99890392	     -2.24508506	      2.50470950	     20.70663583	      1.10707186	      0.21919771	     -0.21590602	     -0.76345501	     -8.89555903	      5.34804443	     -0.55303124	     -2.06395764	      8.36103755
      1.17083333	     -0.43298932	     -0.40588574	     -1.99537018	     -0.11473702	      1.00163922	      0.32434955	    -14.85667495	      5.05451364	      1.99359170	    -15.82011020	     15.66971354	     -2.45649130	      3.65411775	     20.60331680	      1.45311824	      0.45114268	     -0.94706327	     -1.27040287	     -9.39972572	      6.25868135	     -0.69850977	     -2.38138265	      8.34204328
      1.17500000	     -0.40433597	     -0.16330149	     -2.00337793	     -0.10876143	      1.00150140	      0.32390146	    -14.70072499	      4.78098886	      1.89038509	    -16.86273499	     15.48264126	     -2.46479521	      3.79066925	     20.67577793	      1.77480805	      0.54794815	     -1.76643308	     -1.67373603	     -9.77144960	      6.32064962	     -0.65887959	     -2.67844313	      8.31132993
      1.17916667	     -0.29938681	      0.09213441	     -1.98532657	     -0.10275350	      1.00152353	      0.32340590	    -14.61836486	      4.49137823	      1.73237640	    -17.90812883	     15.17843932	     -2.50511784	      4.01433491	     20.63052959	      2.12281956	      0.74150002	     -2.51320059	     -2.15790695	    -10.27036462	      6.39544114	     -0.72632004	     -2.99817366	      8.26144806
      1.18333333	     -0.20764677	      0.34534606	     -1.95823113	     -0.09672568	      1.00157122	      0.32287605	    -14.49649541	      4.19989145	      1.54005353	    -18.99471448	     14.81984127	     -2.52787439	      4.29511997	     20.60438802	      2.46957240	      0.90325750	     -3.27915454	     -2.58604940	    -10.68469126	      6.46139327	     -0.77029658	     -3.30660733	      8.20739807
      1.18750000	     -0.10024759	      0.60322386	     -1.92737052	     -0.09068997	      1.00168752	      0.32232031	    -14.36255740	      3.89281824	      1.30365833	    -20.12725861	     14.41329989	     -2.50345167	      4.67373165	     20.55310191	      2.82204572	      1.05741705	     -4.03431698	     -2.98518469	    -11.08415427	      6.52055230	     -0.83577515	     -3.62490476	      8.14450992
      1.19166667	      0.03485983	      0.87085803	     -1.89825639	     -0.08461757	      1.00189875	      0.32177592	    -14.24669148	      3.57268748	      1.07571258	    -21.26621584	     13.85769929	     -2.55982603	      4.81056740	     20.46954806	      3.17617293	      1.11813191	     -4.80007660	     -3.22127682	    -11.23635761	      6.53296384	     -0.92582988	     -3.96630491	      8.11360325
      1.19583333	      0.12980431	      1.11528359	     -1.84594326	     -0.07858001	      1.00207358	      0.32113718	    -14.04427820	      3.26067671	      0.75055432	    -22.46848698	     13.22783903	     -2.53901309	      9.12517189	     20.42346148	      3.52230938	      1.29834370	     -5.55375462	     -3.55954899	    -11.68224974	      6.72925960	     -0.97447642	     -4.24743887	      8.03258476
